# xmcd
#
# Track frame offsets: 
#        187
#        13595
#        42705
#        53262
#        62805
#        76000
#        88530
#        105730
#        119160
#        134080
#        149202
#        160910
#        173360
#        191547
#        222995
#
# Disc length: 3146 seconds
#
# Revision: 0
# Processed by: cddbd v1.5.2PL0 Copyright (c) Steve Scherf et al.
# Submitted via: ExactAudioCopy v1.0b3
#
DISCID=d60c480f
DTITLE=The Stylistics - The Stylistics Disc 1 You Are Everything (Debu
DTITLE=t) VICG-58201-5
DYEAR=1900
DGENRE=Blues
TTITLE0=You Are Everything
TTITLE1=People Make The World Go Round
TTITLE2=Ebony Eyes
TTITLE3=If I Love You
TTITLE4=Stop Look Listen (To Your Heart)
TTITLE5=Point Of No Return
TTITLE6=Betcha By Golly Wow
TTITLE7=Country Living
TTITLE8=You're A Big Girl Now
TTITLE9=I'm Stone In Love With You
TTITLE10=If You Don't Watch Out
TTITLE11=You And Me
TTITLE12=Break Up To Make Up
TTITLE13=Children Of The Night
TTITLE14=Peek A Boo
EXTD=
EXTT0=
EXTT1=
EXTT2=
EXTT3=
EXTT4=
EXTT5=
EXTT6=
EXTT7=
EXTT8=
EXTT9=
EXTT10=
EXTT11=
EXTT12=
EXTT13=
EXTT14=
PLAYORDER=
